# 3ds Max Wavefront OBJ Exporter v0.99 - (c)2007 guruware
# File Created: 21.07.2021 00:58:02

mtllib Bullet_VFX.mtl

#
# object Bullet
#

v  5.0861 50.4086 1.8512
v  5.4125 50.4086 -0.0000
v  5.0861 50.4086 -1.8512
v  4.1462 50.4086 -3.4791
v  2.7063 50.4086 -4.6874
v  0.9399 50.4086 -5.3303
v  -0.9399 50.4086 -5.3303
v  -2.7063 50.4086 -4.6874
v  -4.1462 50.4086 -3.4791
v  -5.0861 50.4086 -1.8512
v  -5.4125 50.4086 -0.0000
v  -5.0861 50.4086 1.8512
v  -4.1462 50.4086 3.4791
v  -2.7063 50.4086 4.6874
v  -0.9399 50.4086 5.3303
v  0.9399 50.4086 5.3303
v  2.7063 50.4086 4.6874
v  4.1462 50.4086 3.4791
v  12.6390 40.2159 -0.0000
v  11.8768 40.2159 -4.3228
v  10.9226 43.8820 -3.9755
v  11.6236 43.8820 -0.0000
v  9.6821 40.2159 -8.1242
v  8.9042 43.8820 -7.4715
v  6.3195 40.2159 -10.9457
v  5.8118 43.8820 -10.0663
v  2.1947 40.2159 -12.4470
v  2.0184 43.8820 -11.4470
v  -2.1947 40.2159 -12.4470
v  -2.0184 43.8820 -11.4470
v  -6.3195 40.2159 -10.9457
v  -5.8118 43.8820 -10.0663
v  -9.6821 40.2159 -8.1242
v  -8.9042 43.8820 -7.4715
v  -11.8768 40.2159 -4.3228
v  -10.9226 43.8820 -3.9755
v  -12.6390 40.2159 -0.0000
v  -11.6236 43.8820 -0.0000
v  -11.8768 40.2159 4.3228
v  -10.9226 43.8820 3.9755
v  -9.6821 40.2159 8.1242
v  -8.9042 43.8820 7.4715
v  -6.3195 40.2159 10.9457
v  -5.8118 43.8820 10.0663
v  -2.1948 40.2159 12.4470
v  -2.0184 43.8820 11.4470
v  2.1947 40.2159 12.4470
v  2.0184 43.8820 11.4470
v  6.3195 40.2159 10.9457
v  5.8118 43.8820 10.0663
v  9.6821 40.2159 8.1242
v  8.9042 43.8820 7.4715
v  11.8768 40.2159 4.3228
v  10.9226 43.8820 3.9755
v  7.6117 48.1217 -2.7704
v  8.1002 48.1217 -0.0000
v  6.2051 48.1217 -5.2067
v  4.0501 48.1217 -7.0150
v  1.4066 48.1217 -7.9772
v  -1.4066 48.1217 -7.9772
v  -4.0501 48.1217 -7.0150
v  -6.2051 48.1217 -5.2067
v  -7.6117 48.1217 -2.7704
v  -8.1002 48.1217 -0.0000
v  -7.6117 48.1217 2.7704
v  -6.2051 48.1217 5.2067
v  -4.0501 48.1217 7.0150
v  -1.4066 48.1217 7.9772
v  1.4066 48.1217 7.9772
v  4.0501 48.1217 7.0150
v  6.2051 48.1217 5.2067
v  7.6117 48.1217 2.7705
v  13.1890 39.6267 0.0000
v  12.3936 39.6267 -4.5109
v  10.1033 39.6267 -8.4777
v  6.5945 39.6267 -11.4220
v  2.2902 39.6267 -12.9886
v  -2.2902 39.6267 -12.9886
v  -6.5945 39.6267 -11.4220
v  -10.1033 39.6267 -8.4777
v  -12.3936 39.6267 -4.5109
v  -13.1890 39.6267 -0.0000
v  -12.3936 39.6267 4.5109
v  -10.1034 39.6267 8.4777
v  -6.5945 39.6267 11.4220
v  -2.2902 39.6267 12.9886
v  2.2902 39.6267 12.9886
v  6.5945 39.6267 11.4220
v  10.1033 39.6267 8.4777
v  12.3936 39.6267 4.5109
v  13.1890 22.7867 0.0000
v  12.3936 22.7867 -4.5109
v  10.1033 22.7867 -8.4777
v  6.5945 22.7867 -11.4220
v  2.2902 22.7867 -12.9886
v  -2.2902 22.7867 -12.9886
v  -6.5945 22.7867 -11.4220
v  -10.1033 22.7867 -8.4777
v  -12.3936 22.7867 -4.5109
v  -13.1890 22.7867 -0.0000
v  -12.3936 22.7867 4.5109
v  -10.1034 22.7867 8.4777
v  -6.5945 22.7867 11.4220
v  -2.2902 22.7867 12.9886
v  2.2902 22.7867 12.9886
v  6.5945 22.7867 11.4220
v  10.1033 22.7867 8.4777
v  12.3936 22.7867 4.5109
v  12.7008 21.7306 0.0000
v  11.9349 21.7306 -4.3439
v  9.7294 21.7306 -8.1639
v  6.3504 21.7306 -10.9992
v  2.2055 21.7306 -12.5079
v  -2.2055 21.7306 -12.5079
v  -6.3504 21.7306 -10.9992
v  -9.7294 21.7306 -8.1639
v  -11.9349 21.7306 -4.3439
v  -12.7008 21.7306 -0.0000
v  -11.9349 21.7306 4.3439
v  -9.7294 21.7306 8.1639
v  -6.3504 21.7306 10.9992
v  -2.2055 21.7306 12.5079
v  2.2055 21.7306 12.5079
v  6.3504 21.7306 10.9993
v  9.7294 21.7306 8.1639
v  11.9349 21.7306 4.3440
v  12.7008 20.1112 0.0000
v  11.9349 20.1112 -4.3439
v  9.7294 20.1112 -8.1639
v  6.3504 20.1112 -10.9992
v  2.2055 20.1112 -12.5079
v  -2.2055 20.1112 -12.5079
v  -6.3504 20.1112 -10.9992
v  -9.7294 20.1112 -8.1639
v  -11.9349 20.1112 -4.3439
v  -12.7008 20.1112 -0.0000
v  -11.9349 20.1112 4.3439
v  -9.7294 20.1112 8.1639
v  -6.3504 20.1112 10.9992
v  -2.2055 20.1112 12.5079
v  2.2055 20.1112 12.5079
v  6.3504 20.1112 10.9993
v  9.7294 20.1112 8.1639
v  11.9349 20.1112 4.3440
v  13.3224 18.8744 0.0000
v  12.5189 18.8744 -4.5565
v  10.2055 18.8744 -8.5635
v  6.6612 18.8744 -11.5375
v  2.3134 18.8744 -13.1200
v  -2.3134 18.8744 -13.1200
v  -6.6612 18.8744 -11.5375
v  -10.2055 18.8744 -8.5635
v  -12.5189 18.8744 -4.5565
v  -13.3224 18.8744 -0.0000
v  -12.5189 18.8744 4.5565
v  -10.2055 18.8744 8.5635
v  -6.6612 18.8744 11.5375
v  -2.3134 18.8744 13.1200
v  2.3134 18.8744 13.1200
v  6.6612 18.8744 11.5375
v  10.2055 18.8744 8.5635
v  12.5189 18.8744 4.5565
v  13.3224 16.9685 0.0000
v  12.5189 16.9685 -4.5565
v  10.2055 16.9685 -8.5635
v  6.6612 16.9685 -11.5375
v  2.3134 16.9685 -13.1200
v  -2.3134 16.9685 -13.1200
v  -6.6612 16.9685 -11.5375
v  -10.2055 16.9685 -8.5635
v  -12.5189 16.9685 -4.5565
v  -13.3224 16.9685 -0.0000
v  -12.5189 16.9685 4.5565
v  -10.2055 16.9685 8.5635
v  -6.6612 16.9685 11.5375
v  -2.3134 16.9685 13.1200
v  2.3134 16.9685 13.1200
v  6.6612 16.9685 11.5375
v  10.2055 16.9685 8.5635
v  12.5189 16.9685 4.5565
v  12.2552 15.7486 0.0000
v  11.5162 15.7486 -4.1915
v  9.3881 15.7486 -7.8775
v  7.0982 15.7486 -10.6134
v  2.1281 15.7486 -12.0691
v  -2.1281 15.7486 -12.0691
v  -6.1276 15.7486 -10.6134
v  -9.3881 15.7486 -7.8775
v  -11.5162 15.7486 -4.1915
v  -12.2552 15.7486 -0.0000
v  -11.5162 15.7486 4.1915
v  -9.3881 15.7486 7.8775
v  -6.1276 15.7486 10.6134
v  -2.1281 15.7486 12.0691
v  2.1281 15.7486 12.0691
v  6.1276 15.7486 10.6134
v  9.3881 15.7486 7.8775
v  11.5162 15.7486 4.1915
# 198 vertices

vn 0.3553 0.9258 0.1293
vn 0.3781 0.9258 0.0000
vn 0.3553 0.9258 -0.1293
vn 0.2897 0.9258 -0.2430
vn 0.1891 0.9258 -0.3275
vn 0.0657 0.9258 -0.3724
vn -0.0657 0.9258 -0.3724
vn -0.1891 0.9258 -0.3275
vn -0.2897 0.9258 -0.2430
vn -0.3553 0.9258 -0.1293
vn -0.3781 0.9258 -0.0000
vn -0.3553 0.9258 0.1293
vn -0.2897 0.9258 0.2430
vn -0.1891 0.9258 0.3275
vn -0.0657 0.9258 0.3724
vn 0.0657 0.9258 0.3724
vn 0.1891 0.9258 0.3275
vn 0.2897 0.9258 0.2430
vn 0.8659 0.5002 0.0000
vn 0.8137 0.5002 -0.2961
vn 0.8372 0.4541 -0.3047
vn 0.8910 0.4541 0.0000
vn 0.6633 0.5002 -0.5566
vn 0.6825 0.4541 -0.5727
vn 0.4329 0.5002 -0.7499
vn 0.4455 0.4541 -0.7716
vn 0.1504 0.5002 -0.8527
vn 0.1547 0.4541 -0.8774
vn -0.1504 0.5002 -0.8527
vn -0.1547 0.4541 -0.8774
vn -0.4329 0.5002 -0.7499
vn -0.4455 0.4541 -0.7716
vn -0.6633 0.5002 -0.5566
vn -0.6825 0.4541 -0.5727
vn -0.8137 0.5002 -0.2961
vn -0.8372 0.4541 -0.3047
vn -0.8659 0.5002 0.0000
vn -0.8910 0.4541 -0.0000
vn -0.8137 0.5002 0.2961
vn -0.8372 0.4541 0.3047
vn -0.6633 0.5002 0.5566
vn -0.6825 0.4541 0.5727
vn -0.4329 0.5002 0.7499
vn -0.4455 0.4541 0.7716
vn -0.1504 0.5002 0.8527
vn -0.1547 0.4541 0.8774
vn 0.1504 0.5002 0.8527
vn 0.1547 0.4541 0.8774
vn 0.4329 0.5002 0.7499
vn 0.4455 0.4541 0.7716
vn 0.6633 0.5002 0.5566
vn 0.6825 0.4541 0.5727
vn 0.8137 0.5002 0.2962
vn 0.8372 0.4541 0.3047
vn 0.6727 0.6982 -0.2448
vn 0.7159 0.6982 0.0000
vn 0.5484 0.6982 -0.4601
vn 0.3579 0.6982 -0.6200
vn 0.1243 0.6982 -0.7050
vn -0.1243 0.6982 -0.7050
vn -0.3579 0.6982 -0.6200
vn -0.5484 0.6982 -0.4601
vn -0.6727 0.6982 -0.2448
vn -0.7159 0.6982 -0.0000
vn -0.6727 0.6982 0.2448
vn -0.5484 0.6982 0.4601
vn -0.3579 0.6982 0.6200
vn -0.1243 0.6982 0.7050
vn 0.1243 0.6982 0.7050
vn 0.3579 0.6982 0.6200
vn 0.5484 0.6982 0.4601
vn 0.6727 0.6982 0.2448
vn 0.9354 0.3535 0.0000
vn 0.8790 0.3535 -0.3199
vn 0.7166 0.3536 -0.6013
vn 0.4677 0.3536 -0.8101
vn 0.1624 0.3535 -0.9212
vn -0.1624 0.3535 -0.9212
vn -0.4677 0.3535 -0.8101
vn -0.7166 0.3535 -0.6013
vn -0.8790 0.3536 -0.3199
vn -0.9354 0.3536 -0.0000
vn -0.8790 0.3536 0.3199
vn -0.7166 0.3535 0.6013
vn -0.4677 0.3535 0.8101
vn -0.1624 0.3535 0.9212
vn 0.1624 0.3536 0.9212
vn 0.4677 0.3536 0.8101
vn 0.7166 0.3536 0.6013
vn 0.8790 0.3536 0.3199
vn 0.9777 -0.2100 0.0000
vn 0.9187 -0.2100 -0.3344
vn 0.7490 -0.2100 -0.6284
vn 0.4888 -0.2100 -0.8467
vn 0.1698 -0.2100 -0.9629
vn -0.1698 -0.2100 -0.9629
vn -0.4889 -0.2100 -0.8467
vn -0.7490 -0.2100 -0.6285
vn -0.9187 -0.2100 -0.3344
vn -0.9777 -0.2100 -0.0000
vn -0.9187 -0.2100 0.3344
vn -0.7490 -0.2100 0.6285
vn -0.4889 -0.2100 0.8467
vn -0.1698 -0.2100 0.9629
vn 0.1698 -0.2100 0.9629
vn 0.4889 -0.2100 0.8467
vn 0.7490 -0.2100 0.6285
vn 0.9187 -0.2100 0.3344
vn 0.9755 -0.2200 0.0000
vn 0.9167 -0.2200 -0.3336
vn 0.7473 -0.2200 -0.6270
vn 0.4877 -0.2200 -0.8448
vn 0.1694 -0.2200 -0.9607
vn -0.1694 -0.2200 -0.9607
vn -0.4878 -0.2200 -0.8448
vn -0.7473 -0.2200 -0.6270
vn -0.9167 -0.2200 -0.3337
vn -0.9755 -0.2200 0.0000
vn -0.9167 -0.2200 0.3337
vn -0.7473 -0.2200 0.6270
vn -0.4878 -0.2200 0.8448
vn -0.1694 -0.2200 0.9607
vn 0.1694 -0.2200 0.9607
vn 0.4878 -0.2200 0.8448
vn 0.7473 -0.2200 0.6270
vn 0.9167 -0.2200 0.3336
vn 0.9716 0.2367 0.0000
vn 0.9130 0.2367 -0.3323
vn 0.7443 0.2367 -0.6245
vn 0.4858 0.2367 -0.8414
vn 0.1687 0.2367 -0.9568
vn -0.1687 0.2367 -0.9568
vn -0.4858 0.2367 -0.8414
vn -0.7443 0.2367 -0.6245
vn -0.9130 0.2367 -0.3323
vn -0.9716 0.2367 -0.0000
vn -0.9130 0.2367 0.3323
vn -0.7443 0.2367 0.6245
vn -0.4858 0.2367 0.8414
vn -0.1687 0.2367 0.9568
vn 0.1687 0.2367 0.9568
vn 0.4858 0.2367 0.8414
vn 0.7443 0.2367 0.6245
vn 0.9130 0.2367 0.3323
vn 0.9743 0.2252 0.0000
vn 0.9156 0.2252 -0.3332
vn 0.7464 0.2252 -0.6263
vn 0.4871 0.2252 -0.8438
vn 0.1692 0.2252 -0.9595
vn -0.1692 0.2252 -0.9595
vn -0.4872 0.2252 -0.8438
vn -0.7464 0.2252 -0.6263
vn -0.9155 0.2252 -0.3332
vn -0.9743 0.2252 0.0000
vn -0.9155 0.2252 0.3332
vn -0.7464 0.2252 0.6263
vn -0.4872 0.2252 0.8438
vn -0.1692 0.2252 0.9595
vn 0.1692 0.2252 0.9595
vn 0.4872 0.2252 0.8438
vn 0.7464 0.2252 0.6263
vn 0.9156 0.2252 0.3332
vn 0.9406 -0.3395 0.0000
vn 0.8839 -0.3395 -0.3217
vn 0.7206 -0.3395 -0.6046
vn 0.4642 -0.2303 -0.8553
vn 0.1633 -0.3395 -0.9263
vn -0.1633 -0.3395 -0.9263
vn -0.4703 -0.3395 -0.8146
vn -0.7206 -0.3395 -0.6046
vn -0.8839 -0.3395 -0.3217
vn -0.9406 -0.3395 0.0000
vn -0.8839 -0.3395 0.3217
vn -0.7206 -0.3395 0.6046
vn -0.4703 -0.3395 0.8146
vn -0.1633 -0.3395 0.9263
vn 0.1633 -0.3395 0.9263
vn 0.4703 -0.3395 0.8146
vn 0.7206 -0.3395 0.6046
vn 0.8839 -0.3395 0.3217
vn 0.4499 -0.8931 0.0000
vn 0.4228 -0.8931 -0.1539
vn 0.3555 -0.9015 -0.2468
vn 0.4132 -0.7659 -0.4927
vn 0.0621 -0.8963 -0.4392
vn -0.0781 -0.8931 -0.4431
vn -0.2249 -0.8931 -0.3896
vn -0.3446 -0.8931 -0.2892
vn -0.4228 -0.8931 -0.1539
vn -0.4499 -0.8931 -0.0000
vn -0.4228 -0.8931 0.1539
vn -0.3446 -0.8931 0.2892
vn -0.2249 -0.8931 0.3896
vn -0.0781 -0.8931 0.4431
vn 0.0781 -0.8931 0.4431
vn 0.2249 -0.8931 0.3896
vn 0.3446 -0.8931 0.2892
vn 0.4228 -0.8931 0.1539
# 198 vertex normals

vt 0.6944 1.0000 1.0000
vt 0.7500 1.0000 1.0000
vt 0.8056 1.0000 1.0000
vt 0.8611 1.0000 1.0000
vt 0.9167 1.0000 1.0000
vt 0.9722 1.0000 1.0000
vt 0.9708 1.0000 0.8794
vt 0.9126 1.0000 0.6527
vt 0.8047 1.0000 0.3473
vt 0.6600 1.0000 -0.0000
vt 0.4960 1.0000 -0.3473
vt 0.3325 1.0000 -0.6527
vt 0.1891 1.0000 -0.8794
vt 0.0833 1.0000 -1.0000
vt 0.0278 1.0000 -1.0000
vt 0.0292 1.0000 -0.8794
vt 0.0874 1.0000 -0.6527
vt 0.1953 1.0000 -0.3473
# 18 texture coords

o Bullet
g Bullet
usemtl wire_213154229
s 1
f 1/1/1 2/2/2 3/3/3 4/4/4 5/5/5 6/6/6 7/7/7 8/8/8 9/9/9 10/10/10 11/11/11 12/12/12 13/13/13 14/14/14 15/15/15 16/16/16 17/17/17 18/18/18 
f 19/2/19 20/3/20 21/3/21 22/2/22 
f 20/3/20 23/4/23 24/4/24 21/3/21 
f 23/4/23 25/5/25 26/5/26 24/4/24 
f 25/5/25 27/6/27 28/6/28 26/5/26 
f 27/6/27 29/7/29 30/7/30 28/6/28 
f 29/7/29 31/8/31 32/8/32 30/7/30 
f 31/8/31 33/9/33 34/9/34 32/8/32 
f 33/9/33 35/10/35 36/10/36 34/9/34 
f 35/10/35 37/11/37 38/11/38 36/10/36 
f 37/11/37 39/12/39 40/12/40 38/11/38 
f 39/12/39 41/13/41 42/13/42 40/12/40 
f 41/13/41 43/14/43 44/14/44 42/13/42 
f 43/14/43 45/15/45 46/15/46 44/14/44 
f 45/15/45 47/16/47 48/16/48 46/15/46 
f 47/16/47 49/17/49 50/17/50 48/16/48 
f 49/17/49 51/18/51 52/18/52 50/17/50 
f 51/18/51 53/1/53 54/1/54 52/18/52 
f 53/1/53 19/2/19 22/2/22 54/1/54 
f 22/2/22 21/3/21 55/3/55 56/2/56 
f 21/3/21 24/4/24 57/4/57 55/3/55 
f 24/4/24 26/5/26 58/5/58 57/4/57 
f 26/5/26 28/6/28 59/6/59 58/5/58 
f 28/6/28 30/7/30 60/7/60 59/6/59 
f 30/7/30 32/8/32 61/8/61 60/7/60 
f 32/8/32 34/9/34 62/9/62 61/8/61 
f 34/9/34 36/10/36 63/10/63 62/9/62 
f 36/10/36 38/11/38 64/11/64 63/10/63 
f 38/11/38 40/12/40 65/12/65 64/11/64 
f 40/12/40 42/13/42 66/13/66 65/12/65 
f 42/13/42 44/14/44 67/14/67 66/13/66 
f 44/14/44 46/15/46 68/15/68 67/14/67 
f 46/15/46 48/16/48 69/16/69 68/15/68 
f 48/16/48 50/17/50 70/17/70 69/16/69 
f 50/17/50 52/18/52 71/18/71 70/17/70 
f 52/18/52 54/1/54 72/1/72 71/18/71 
f 54/1/54 22/2/22 56/2/56 72/1/72 
f 56/2/56 55/3/55 3/3/3 2/2/2 
f 55/3/55 57/4/57 4/4/4 3/3/3 
f 57/4/57 58/5/58 5/5/5 4/4/4 
f 58/5/58 59/6/59 6/6/6 5/5/5 
f 59/6/59 60/7/60 7/7/7 6/6/6 
f 60/7/60 61/8/61 8/8/8 7/7/7 
f 61/8/61 62/9/62 9/9/9 8/8/8 
f 62/9/62 63/10/63 10/10/10 9/9/9 
f 63/10/63 64/11/64 11/11/11 10/10/10 
f 64/11/64 65/12/65 12/12/12 11/11/11 
f 65/12/65 66/13/66 13/13/13 12/12/12 
f 66/13/66 67/14/67 14/14/14 13/13/13 
f 67/14/67 68/15/68 15/15/15 14/14/14 
f 68/15/68 69/16/69 16/16/16 15/15/15 
f 69/16/69 70/17/70 17/17/17 16/16/16 
f 70/17/70 71/18/71 18/18/18 17/17/17 
f 71/18/71 72/1/72 1/1/1 18/18/18 
f 72/1/72 56/2/56 2/2/2 1/1/1 
f 20/3/20 19/2/19 73/2/73 74/3/74 
f 23/4/23 20/3/20 74/3/74 75/4/75 
f 25/5/25 23/4/23 75/4/75 76/5/76 
f 27/6/27 25/5/25 76/5/76 77/6/77 
f 29/7/29 27/6/27 77/6/77 78/7/78 
f 31/8/31 29/7/29 78/7/78 79/8/79 
f 33/9/33 31/8/31 79/8/79 80/9/80 
f 35/10/35 33/9/33 80/9/80 81/10/81 
f 37/11/37 35/10/35 81/10/81 82/11/82 
f 39/12/39 37/11/37 82/11/82 83/12/83 
f 41/13/41 39/12/39 83/12/83 84/13/84 
f 43/14/43 41/13/41 84/13/84 85/14/85 
f 45/15/45 43/14/43 85/14/85 86/15/86 
f 47/16/47 45/15/45 86/15/86 87/16/87 
f 49/17/49 47/16/47 87/16/87 88/17/88 
f 51/18/51 49/17/49 88/17/88 89/18/89 
f 53/1/53 51/18/51 89/18/89 90/1/90 
f 19/2/19 53/1/53 90/1/90 73/2/73 
f 74/3/74 73/2/73 91/2/91 92/3/92 
f 75/4/75 74/3/74 92/3/92 93/4/93 
f 76/5/76 75/4/75 93/4/93 94/5/94 
f 77/6/77 76/5/76 94/5/94 95/6/95 
f 78/7/78 77/6/77 95/6/95 96/7/96 
f 79/8/79 78/7/78 96/7/96 97/8/97 
f 80/9/80 79/8/79 97/8/97 98/9/98 
f 81/10/81 80/9/80 98/9/98 99/10/99 
f 82/11/82 81/10/81 99/10/99 100/11/100 
f 83/12/83 82/11/82 100/11/100 101/12/101 
f 84/13/84 83/12/83 101/12/101 102/13/102 
f 85/14/85 84/13/84 102/13/102 103/14/103 
f 86/15/86 85/14/85 103/14/103 104/15/104 
f 87/16/87 86/15/86 104/15/104 105/16/105 
f 88/17/88 87/16/87 105/16/105 106/17/106 
f 89/18/89 88/17/88 106/17/106 107/18/107 
f 90/1/90 89/18/89 107/18/107 108/1/108 
f 73/2/73 90/1/90 108/1/108 91/2/91 
f 92/3/92 91/2/91 109/2/109 110/3/110 
f 93/4/93 92/3/92 110/3/110 111/4/111 
f 94/5/94 93/4/93 111/4/111 112/5/112 
f 95/6/95 94/5/94 112/5/112 113/6/113 
f 96/7/96 95/6/95 113/6/113 114/7/114 
f 97/8/97 96/7/96 114/7/114 115/8/115 
f 98/9/98 97/8/97 115/8/115 116/9/116 
f 99/10/99 98/9/98 116/9/116 117/10/117 
f 100/11/100 99/10/99 117/10/117 118/11/118 
f 101/12/101 100/11/100 118/11/118 119/12/119 
f 102/13/102 101/12/101 119/12/119 120/13/120 
f 103/14/103 102/13/102 120/13/120 121/14/121 
f 104/15/104 103/14/103 121/14/121 122/15/122 
f 105/16/105 104/15/104 122/15/122 123/16/123 
f 106/17/106 105/16/105 123/16/123 124/17/124 
f 107/18/107 106/17/106 124/17/124 125/18/125 
f 108/1/108 107/18/107 125/18/125 126/1/126 
f 91/2/91 108/1/108 126/1/126 109/2/109 
f 110/3/110 109/2/109 127/2/127 128/3/128 
f 111/4/111 110/3/110 128/3/128 129/4/129 
f 112/5/112 111/4/111 129/4/129 130/5/130 
f 113/6/113 112/5/112 130/5/130 131/6/131 
f 114/7/114 113/6/113 131/6/131 132/7/132 
f 115/8/115 114/7/114 132/7/132 133/8/133 
f 116/9/116 115/8/115 133/8/133 134/9/134 
f 117/10/117 116/9/116 134/9/134 135/10/135 
f 118/11/118 117/10/117 135/10/135 136/11/136 
f 119/12/119 118/11/118 136/11/136 137/12/137 
f 120/13/120 119/12/119 137/12/137 138/13/138 
f 121/14/121 120/13/120 138/13/138 139/14/139 
f 122/15/122 121/14/121 139/14/139 140/15/140 
f 123/16/123 122/15/122 140/15/140 141/16/141 
f 124/17/124 123/16/123 141/16/141 142/17/142 
f 125/18/125 124/17/124 142/17/142 143/18/143 
f 126/1/126 125/18/125 143/18/143 144/1/144 
f 109/2/109 126/1/126 144/1/144 127/2/127 
f 128/3/128 127/2/127 145/2/145 146/3/146 
f 129/4/129 128/3/128 146/3/146 147/4/147 
f 130/5/130 129/4/129 147/4/147 148/5/148 
f 131/6/131 130/5/130 148/5/148 149/6/149 
f 132/7/132 131/6/131 149/6/149 150/7/150 
f 133/8/133 132/7/132 150/7/150 151/8/151 
f 134/9/134 133/8/133 151/8/151 152/9/152 
f 135/10/135 134/9/134 152/9/152 153/10/153 
f 136/11/136 135/10/135 153/10/153 154/11/154 
f 137/12/137 136/11/136 154/11/154 155/12/155 
f 138/13/138 137/12/137 155/12/155 156/13/156 
f 139/14/139 138/13/138 156/13/156 157/14/157 
f 140/15/140 139/14/139 157/14/157 158/15/158 
f 141/16/141 140/15/140 158/15/158 159/16/159 
f 142/17/142 141/16/141 159/16/159 160/17/160 
f 143/18/143 142/17/142 160/17/160 161/18/161 
f 144/1/144 143/18/143 161/18/161 162/1/162 
f 127/2/127 144/1/144 162/1/162 145/2/145 
f 146/3/146 145/2/145 163/2/163 164/3/164 
f 147/4/147 146/3/146 164/3/164 165/4/165 
f 148/5/148 147/4/147 165/4/165 166/5/166 
f 149/6/149 148/5/148 166/5/166 167/6/167 
f 150/7/150 149/6/149 167/6/167 168/7/168 
f 151/8/151 150/7/150 168/7/168 169/8/169 
f 152/9/152 151/8/151 169/8/169 170/9/170 
f 153/10/153 152/9/152 170/9/170 171/10/171 
f 154/11/154 153/10/153 171/10/171 172/11/172 
f 155/12/155 154/11/154 172/11/172 173/12/173 
f 156/13/156 155/12/155 173/12/173 174/13/174 
f 157/14/157 156/13/156 174/13/174 175/14/175 
f 158/15/158 157/14/157 175/14/175 176/15/176 
f 159/16/159 158/15/158 176/15/176 177/16/177 
f 160/17/160 159/16/159 177/16/177 178/17/178 
f 161/18/161 160/17/160 178/17/178 179/18/179 
f 162/1/162 161/18/161 179/18/179 180/1/180 
f 145/2/145 162/1/162 180/1/180 163/2/163 
f 164/3/164 163/2/163 181/2/181 182/3/182 
f 165/4/165 164/3/164 182/3/182 183/4/183 
f 166/5/166 165/4/165 183/4/183 184/5/184 
f 167/6/167 166/5/166 184/5/184 185/6/185 
f 168/7/168 167/6/167 185/6/185 186/7/186 
f 169/8/169 168/7/168 186/7/186 187/8/187 
f 170/9/170 169/8/169 187/8/187 188/9/188 
f 171/10/171 170/9/170 188/9/188 189/10/189 
f 172/11/172 171/10/171 189/10/189 190/11/190 
f 173/12/173 172/11/172 190/11/190 191/12/191 
f 174/13/174 173/12/173 191/12/191 192/13/192 
f 175/14/175 174/13/174 192/13/192 193/14/193 
f 176/15/176 175/14/175 193/14/193 194/15/194 
f 177/16/177 176/15/176 194/15/194 195/16/195 
f 178/17/178 177/16/177 195/16/195 196/17/196 
f 179/18/179 178/17/178 196/17/196 197/18/197 
f 180/1/180 179/18/179 197/18/197 198/1/198 
f 163/2/163 180/1/180 198/1/198 181/2/181 
s 2
f 191/12/191 190/11/190 189/10/189 188/9/188 
f 192/13/192 191/12/191 188/9/188 187/8/187 
f 193/14/193 192/13/192 187/8/187 186/7/186 
f 194/15/194 193/14/193 186/7/186 185/6/185 
f 195/16/195 194/15/194 185/6/185 184/5/184 
f 196/17/196 195/16/195 184/5/184 183/4/183 
f 197/18/197 196/17/196 183/4/183 182/3/182 
f 198/1/198 197/18/197 182/3/182 181/2/181 
# 189 polygons

